HIERARCHY
ROOT Hips
{
 OFFSET 0.000000 0.000000 0.000000
 CHANNELS 6 Xposition Yposition Zposition Yrotation Xrotation Zrotation
 JOINT Chest
 {
  OFFSET 0.000000 9.585900 0.002600
  CHANNELS 3 Yrotation Xrotation Zrotation
  JOINT Chest2
  {
   OFFSET 0.000000 9.601200 -0.005300
   CHANNELS 3 Yrotation Xrotation Zrotation
   JOINT Chest3
   {
    OFFSET 0.000000 9.561800 0.000000
    CHANNELS 3 Yrotation Xrotation Zrotation
    JOINT Chest4
    {
     OFFSET 0.000000 9.552100 0.000000
     CHANNELS 3 Yrotation Xrotation Zrotation
     JOINT Neck
     {
      OFFSET 0.000000 14.453000 0.000000
      CHANNELS 3 Yrotation Xrotation Zrotation
      JOINT Head
      {
       OFFSET 0.000000 8.936500 -0.011300
       CHANNELS 3 Yrotation Xrotation Zrotation
       End Site
       {
        OFFSET 0.000000 17.073600 -0.006000
       }
      }
     }
     JOINT RightCollar
     {
      OFFSET -2.921100 9.558500 0.000000
      CHANNELS 3 Yrotation Xrotation Zrotation
      JOINT RightShoulder
      {
       OFFSET -13.519700 0.000000 0.000000
       CHANNELS 3 Yrotation Xrotation Zrotation
       JOINT RightElbow
       {
        OFFSET 0.000000 -29.696600 0.000000
        CHANNELS 3 Yrotation Xrotation Zrotation
        JOINT RightWrist
        {
         OFFSET 0.000000 -24.004700 0.000000
         CHANNELS 3 Yrotation Xrotation Zrotation
         End Site
         {
          OFFSET 0.000000 -17.728500 0.000000
         }
        }
       }
      }
     }
     JOINT LeftCollar
     {
      OFFSET 2.921100 9.558500 0.000000
      CHANNELS 3 Yrotation Xrotation Zrotation
      JOINT LeftShoulder
      {
       OFFSET 13.519700 0.000000 0.000000
       CHANNELS 3 Yrotation Xrotation Zrotation
       JOINT LeftElbow
       {
        OFFSET 0.000000 -29.696600 0.000000
        CHANNELS 3 Yrotation Xrotation Zrotation
        JOINT LeftWrist
        {
         OFFSET 0.000000 -24.004700 0.000000
         CHANNELS 3 Yrotation Xrotation Zrotation
         End Site
         {
          OFFSET 0.000000 -17.728500 0.000000
         }
        }
       }
      }
     }
    }
   }
  }
 }
 JOINT RightHip
 {
  OFFSET -7.771700 -0.012900 -0.001300
  CHANNELS 3 Yrotation Xrotation Zrotation
  JOINT RightKnee
  {
   OFFSET 0.000000 -40.869800 0.001200
   CHANNELS 3 Yrotation Xrotation Zrotation
   JOINT RightAnkle
   {
    OFFSET 0.000000 -39.717900 0.002100
    CHANNELS 3 Yrotation Xrotation Zrotation
    JOINT RightToe
    {
     OFFSET 0.000000 -4.965400 11.033500
     CHANNELS 3 Yrotation Xrotation Zrotation
     End Site
     {
      OFFSET 0.000000 -1.423100 5.872300
     }
    }
   }
  }
 }
 JOINT LeftHip
 {
  OFFSET 7.771700 -0.012900 -0.001300
  CHANNELS 3 Yrotation Xrotation Zrotation
  JOINT LeftKnee
  {
   OFFSET 0.000000 -40.869800 0.001200
   CHANNELS 3 Yrotation Xrotation Zrotation
   JOINT LeftAnkle
   {
    OFFSET 0.000000 -39.717900 0.002100
    CHANNELS 3 Yrotation Xrotation Zrotation
    JOINT LeftToe
    {
     OFFSET 0.000000 -4.965400 11.033500
     CHANNELS 3 Yrotation Xrotation Zrotation
     End Site
     {
      OFFSET 0.000000 -1.423100 5.872300
     }
    }
   }
  }
 }
}
MOTION
Frames: 8
Frame Time: 0.008333
-96.728749 44.416955 16.605656 175.915155 -33.975301 -0.426448 0.631002 25.138505 1.498124 0.054593 4.045987 0.287806 0.045810 6.473429 0.385737 0.413167 20.911555 1.425979 1.446479 12.680968 -10.208749 4.100118 -12.091420 -11.802936 14.651131 1.306902 -4.328421 -17.840153 -24.818515 -6.661290 -73.095620 -43.753926 54.962093 -22.186924 -7.792800 -13.573404 -20.529504 0.405311 -6.442093 29.603404 -24.899608 -2.395402 81.509292 -41.580306 -70.019048 28.037678 -0.281406 4.671256 1.171672 -57.730540 8.202250 -150.368609 71.778790 -148.809374 -13.240277 -21.277303 8.248482 0.210798 0.007996 -0.326119 3.751786 -41.565882 -0.943765 175.932821 58.827044 175.294020 -2.054524 -41.862429 2.745898 -0.023945 0.140656 -0.014550
-96.703601 44.409813 16.587607 175.912634 -33.951473 -0.440631 0.628445 25.109782 1.486544 0.046312 4.055249 0.280089 0.054761 6.475432 0.393405 0.423364 20.911000 1.436492 1.403906 12.660805 -10.187935 4.074728 -12.127949 -11.748716 14.607866 1.338428 -4.272318 -17.993809 -24.555779 -6.547869 -73.245581 -44.452702 55.595101 -22.081868 -7.590041 -14.510508 -20.524336 0.408740 -6.456264 29.638572 -24.747422 -2.384945 81.667884 -41.651131 -70.352348 28.014913 -0.255098 4.695572 1.114043 -57.767773 8.300980 -150.382973 71.720780 -148.834716 -13.276287 -21.432281 8.347078 0.220152 -0.001705 -0.288395 3.779609 -41.590057 -0.942572 175.916771 58.801475 175.327554 -2.026025 -41.874070 2.718877 -0.034873 0.120994 -0.020666
-96.682592 44.398340 16.570192 175.895064 -33.910813 -0.433429 0.636332 25.063986 1.470241 0.042807 4.059515 0.270701 0.064591 6.477967 0.410742 0.393832 20.926418 1.401542 1.394263 12.622561 -10.149907 4.050437 -12.164049 -11.700007 14.589798 1.346392 -4.198596 -18.127556 -24.267787 -6.426392 -73.445198 -45.217933 56.260001 -21.972009 -7.370510 -15.564487 -20.507671 0.412572 -6.590026 29.644377 -24.692176 -2.255593 81.820315 -41.710709 -70.690274 27.999567 -0.229830 4.710523 0.990281 -57.835902 8.477654 -150.326159 71.634049 -148.840481 -13.357766 -21.579835 8.434978 0.263997 -0.023756 -0.226774 3.811618 -41.630032 -0.947476 175.922356 58.774633 175.359552 -1.996347 -41.892032 2.698012 -0.046731 0.106863 -0.026382
-96.674599 44.393876 16.536032 175.963085 -33.973974 -0.399639 0.544480 25.126459 1.385674 0.033819 4.057346 0.253366 0.062675 6.483291 0.406673 0.385348 20.934014 1.386477 1.387704 12.585767 -10.117178 4.028009 -12.197069 -11.656720 14.571818 1.350909 -4.124646 -18.257925 -23.955761 -6.288517 -73.662828 -46.043661 56.951168 -21.849657 -7.185662 -16.729448 -20.473435 0.395993 -6.681860 29.655570 -24.610522 -2.167756 81.974159 -41.767967 -71.038148 27.998562 -0.208314 4.724229 0.953158 -57.782172 8.455212 -150.514377 71.515492 -149.064407 -13.447845 -21.792700 8.534180 0.289533 -0.050093 -0.191031 3.828458 -41.553120 -1.045511 175.920675 58.746721 175.378697 -1.996505 -41.900829 2.688576 -0.037241 0.077375 -0.022529
-96.661839 44.384322 16.505107 176.008646 -34.008488 -0.391691 0.486993 25.152270 1.326766 0.028923 4.044170 0.227728 0.067125 6.502630 0.426478 0.359912 20.922768 1.335217 1.406433 12.563867 -10.055849 4.006620 -12.224557 -11.617025 14.570217 1.356428 -4.014221 -18.401031 -23.624620 -6.129207 -73.876527 -46.909000 57.666584 -21.705305 -7.066215 -17.958968 -20.422737 0.404856 -6.729052 29.671058 -24.527771 -2.108670 82.141495 -41.836264 -71.402074 28.016342 -0.193526 4.736483 0.852940 -57.762590 8.525555 -150.581944 71.396359 -149.180278 -13.492585 -22.033730 8.619666 0.302617 -0.042353 -0.161300 3.825890 -41.512584 -1.087604 175.924454 58.714828 175.398410 -1.990714 -41.908255 2.678855 -0.037132 0.057536 -0.021296
-96.651214 44.370818 16.475435 176.043132 -34.025029 -0.371837 0.437906 25.137629 1.239328 0.033261 4.057300 0.247179 0.061725 6.488728 0.404110 0.374705 20.929717 1.345074 1.394160 12.545318 -10.026843 4.011501 -12.216382 -11.593605 14.559353 1.372046 -3.950042 -18.589159 -23.277460 -5.925864 -74.105225 -47.789713 58.415918 -21.538427 -7.010595 -19.175296 -20.399037 0.412426 -6.806108 29.682398 -24.455922 -2.059289 82.323470 -41.920607 -71.788014 28.043516 -0.187957 4.748704 0.747419 -57.766485 8.608471 -150.597112 71.274913 -149.258526 -13.565438 -22.232280 8.695023 0.359706 -0.073590 -0.113930 3.833051 -41.491586 -1.135683 175.931426 58.677563 175.416891 -1.994838 -41.921396 2.671195 -0.029916 0.037587 -0.017501
-96.633891 44.350059 16.453063 176.006237 -33.985114 -0.359698 0.473507 25.084447 1.233262 0.034174 4.054747 0.245590 0.064589 6.471885 0.387573 0.383074 20.927237 1.343169 1.381742 12.529680 -9.999598 4.010731 -12.202055 -11.565586 14.542375 1.394143 -3.880784 -18.782230 -22.928657 -5.711559 -74.386759 -48.657522 59.222186 -21.361071 -7.021091 -20.309922 -20.377106 0.430039 -6.890739 29.698280 -24.394292 -2.019542 82.513230 -42.025482 -72.197433 28.063731 -0.188652 4.767318 0.603088 -57.831835 8.803996 -150.540213 71.176832 -149.278725 -13.617400 -22.453770 8.764754 0.389739 -0.062077 -0.080730 3.860390 -41.531333 -1.122433 175.941283 58.635173 175.439283 -1.982333 -41.947508 2.654947 -0.036202 0.021707 -0.017347
-96.628306 44.336611 16.415323 176.078210 -34.041346 -0.335408 0.384529 25.137075 1.157755 0.034572 4.053758 0.245035 0.070189 6.447739 0.366278 0.389569 20.914983 1.332882 1.370432 12.514460 -9.973560 3.986535 -12.213072 -11.525050 14.477051 1.415091 -3.731504 -18.886455 -22.595903 -5.582234 -74.754138 -49.491098 60.107401 -21.201653 -7.106385 -21.304024 -20.354450 0.454956 -6.984416 29.723322 -24.336450 -1.986628 82.715925 -42.158011 -72.632126 28.066552 -0.189659 4.799529 0.470331 -57.795131 8.871166 -150.550545 71.029395 -149.366322 -13.715809 -22.666523 8.840874 0.467285 -0.118208 -0.028449 3.840782 -41.463118 -1.183762 175.970207 58.603319 175.461059 -2.014297 -41.964648 2.663655 -0.015552 0.012071 -0.005722
